# xmcd CD database file
#
# Track frame offsets:
#	150
#	16112
#	30890
#	46975
#	56307
#	79357
#	98485
#	114317
#	127760
#	141140
#	158112
#	188995
#	205040
#
# Disc length: 2908 seconds
#
# Revision: 0
# Processed by: cddbd v1.4PL0 Copyright (c) Steve Scherf et al.
# Submitted via: CDex 1.51
#
DISCID=930b5a0d
DTITLE=LAMBERT,HENDRICKS&ROSS - the SWINGERS
DYEAR=1958
DGENRE=Jazz
TTITLE0=AIREGIN
TTITLE1=BABE'S BLUES
TTITLE2=DARK CLOUD
TTITLE3=JACKIE
TTITLE4=SWINGIN' TILL THE GIRLS COME HOME
TTITLE5=FOUR
TTITLE6=LITTLE NILES
TTITLE7=WHERE
TTITLE8=NOW'S THE TIME
TTITLE9=LOVE MAKES THE WORLD GO 'ROUND
TTITLE10=CLAP HANDS, HERE COMES CHARLIE
TTITLE11=DOODLIN'
TTITLE12=THE SPIRIT-FEEL
EXTD=YEAR: 1958
EXTT0=
EXTT1=
EXTT2=
EXTT3=
EXTT4=
EXTT5=
EXTT6=
EXTT7=
EXTT8=
EXTT9=
EXTT10=
EXTT11=
EXTT12=
PLAYORDER=
